<svg width="32" height="32" viewBox="0 0 32 32" fill="none" xmlns="http://www.w3.org/2000/svg">
<path d="M7.45036 19.56L15.3102 22.9285C15.4488 22.9871 15.5977 23.0174 15.7481 23.0174C15.8986 23.0174 16.0475 22.9871 16.186 22.9285L24.0459 19.56C24.2485 19.4737 24.4212 19.3297 24.5426 19.1461C24.664 18.9624 24.7287 18.7471 24.7287 18.5269C24.7287 18.3068 24.664 18.0915 24.5426 17.9078C24.4212 17.7241 24.2485 17.5802 24.0459 17.4939L16.186 14.1254C16.0475 14.0667 15.8986 14.0365 15.7481 14.0365C15.5977 14.0365 15.4488 14.0667 15.3102 14.1254L7.45036 17.4939C7.24781 17.5802 7.07509 17.7241 6.9537 17.9078C6.8323 18.0915 6.76758 18.3068 6.76758 18.5269C6.76758 18.7471 6.8323 18.9624 6.9537 19.1461C7.07509 19.3297 7.24781 19.4737 7.45036 19.56ZM15.7481 16.3823L20.756 18.5269L15.7481 20.6716L10.7403 18.5269L15.7481 16.3823Z" fill="black"/>
<path d="M23.1713 21.9852L15.7493 25.1629L8.32735 21.9852C8.19061 21.9209 8.04229 21.8848 7.89128 21.8792C7.74027 21.8736 7.58968 21.8985 7.44852 21.9524C7.30737 22.0064 7.17855 22.0883 7.0698 22.1932C6.96105 22.2981 6.87459 22.4239 6.81561 22.563C6.75664 22.7021 6.72635 22.8518 6.72656 23.0029C6.72678 23.154 6.7575 23.3035 6.81688 23.4425C6.87625 23.5814 6.96307 23.707 7.07212 23.8116C7.18118 23.9162 7.31022 23.9977 7.45153 24.0512L15.3114 27.4198C15.4499 27.4784 15.5989 27.5087 15.7493 27.5087C15.8998 27.5087 16.0487 27.4784 16.1872 27.4198L24.0471 24.0512C24.3098 23.9277 24.5144 23.7072 24.618 23.4361C24.7216 23.1649 24.7162 22.8642 24.6029 22.597C24.4896 22.3297 24.2773 22.1167 24.0104 22.0027C23.7434 21.8886 23.4427 21.8824 23.1713 21.9852Z" fill="black"/>
<path d="M23.1713 26.4766L15.7493 29.6542L8.32735 26.4766C8.19061 26.4122 8.04229 26.3762 7.89128 26.3705C7.74027 26.3649 7.58968 26.3898 7.44852 26.4438C7.30737 26.4977 7.17855 26.5796 7.0698 26.6845C6.96105 26.7894 6.87459 26.9152 6.81561 27.0544C6.75664 27.1935 6.72635 27.3431 6.72656 27.4942C6.72678 27.6453 6.7575 27.7948 6.81688 27.9338C6.87625 28.0727 6.96307 28.1983 7.07212 28.3029C7.18118 28.4075 7.31022 28.489 7.45153 28.5426L15.3114 31.9111C15.4499 31.9698 15.5989 32 15.7493 32C15.8998 32 16.0487 31.9698 16.1872 31.9111L24.0471 28.5426C24.3098 28.419 24.5144 28.1986 24.618 27.9274C24.7216 27.6563 24.7162 27.3555 24.6029 27.0883C24.4896 26.8211 24.2773 26.6081 24.0104 26.494C23.7434 26.38 23.4427 26.3737 23.1713 26.4766Z" fill="black"/>
<path d="M25.2821 9.54413C25.2821 7.01287 24.2765 4.58528 22.4867 2.79541C20.6968 1.00554 18.2692 0 15.7379 0C13.2067 0 10.7791 1.00554 8.98921 2.79541C7.19934 4.58528 6.1938 7.01287 6.1938 9.54413C4.82756 9.65466 3.52753 10.1793 2.46726 11.048C1.407 11.9167 0.63694 13.0882 0.259894 14.406C-0.117152 15.7239 -0.0832496 17.1254 0.357076 18.4234C0.797402 19.7215 1.6232 20.8544 2.72423 21.6708C2.96247 21.8495 3.26192 21.9262 3.55673 21.8841C3.85153 21.842 4.11753 21.6845 4.29621 21.4462C4.47488 21.208 4.5516 20.9085 4.50949 20.6137C4.46737 20.3189 4.30987 20.0529 4.07164 19.8743C3.18575 19.2153 2.5736 18.2532 2.35208 17.1716C2.13056 16.09 2.3152 14.9647 2.87073 14.0106C3.42625 13.0564 4.31375 12.3404 5.36374 11.9991C6.41374 11.6578 7.55265 11.7152 8.56299 12.1603C8.70332 12.227 8.85676 12.2615 9.01213 12.2614C9.26716 12.2577 9.51335 12.1673 9.71016 12.0051C9.90698 11.8429 10.0427 11.6185 10.095 11.3688C10.1473 11.1192 10.113 10.8592 9.99781 10.6316C9.88263 10.404 9.69339 10.2225 9.46126 10.1168C9.14256 9.97246 8.81196 9.856 8.47317 9.7687C8.47317 7.83303 9.24211 5.97664 10.6108 4.60791C11.9796 3.23919 13.836 2.47025 15.7716 2.47025C17.7073 2.47025 19.5637 3.23919 20.9324 4.60791C22.3011 5.97664 23.0701 7.83303 23.0701 9.7687C22.7313 9.856 22.4007 9.97246 22.082 10.1168C21.8498 10.2225 21.6606 10.404 21.5454 10.6316C21.4303 10.8592 21.396 11.1192 21.4483 11.3688C21.5005 11.6185 21.6363 11.8429 21.8331 12.0051C22.0299 12.1673 22.2761 12.2577 22.5311 12.2614C22.6865 12.2615 22.8399 12.227 22.9802 12.1603C23.9906 11.7152 25.1295 11.6578 26.1795 11.9991C27.2295 12.3404 28.117 13.0564 28.6725 14.0106C29.228 14.9647 29.4127 16.09 29.1912 17.1716C28.9696 18.2532 28.3575 19.2153 27.4716 19.8743C27.2334 20.0529 27.0759 20.3189 27.0338 20.6137C26.9916 20.9085 27.0684 21.208 27.247 21.4462C27.3516 21.5857 27.4872 21.6989 27.6432 21.7768C27.7991 21.8548 27.971 21.8954 28.1453 21.8954C28.3883 21.8954 28.6247 21.8166 28.819 21.6708C29.9228 20.8504 30.749 19.7118 31.1867 18.408C31.6243 17.1043 31.6526 15.6978 31.2675 14.3775C30.8824 13.0573 30.1025 11.8865 29.0325 11.0225C27.9626 10.1584 26.6538 9.64255 25.2821 9.54413Z" fill="black"/>
</svg>
